inDegrees=no
num_controls=7
num_derivatives=13
num_iterations=85
num_multipliers=7
num_parameters=0
num_slacks=7
num_states=26
objective=5.590861
objective_accelerations=0.196843
objective_balance=0.060274
objective_effort=0.344229
objective_height=4.966023
objective_ligament=0.023492
solver_duration=740.123705
status=Solve_Succeeded
success=true
DataType=double
version=3
OpenSimVersion=4.4-2022-07-23-0e9fedc
endheader
time	/jointset/ground_pelvis/pelvis_tilt/value	/jointset/ground_pelvis/pelvis_tx/value	/jointset/ground_pelvis/pelvis_ty/value	/jointset/hip_r/hip_flexion_r/value	/jointset/hip_r/hip_adduction_r/value	/jointset/hip_r/hip_rotation_r/value	/jointset/back/lumbar_extension/value	/jointset/patellofemoral_r/patellar_flexion_r/value	/jointset/knee_r/knee_flexion_r/value	/jointset/knee_r/knee_adduction_r/value	/jointset/knee_r/knee_rotation_r/value	/jointset/ankle_r/ankle_angle_r/value	/jointset/subtalar_r/subtalar_angle_r/value	/jointset/ground_pelvis/pelvis_tilt/speed	/jointset/ground_pelvis/pelvis_tx/speed	/jointset/ground_pelvis/pelvis_ty/speed	/jointset/hip_r/hip_flexion_r/speed	/jointset/hip_r/hip_adduction_r/speed	/jointset/hip_r/hip_rotation_r/speed	/jointset/back/lumbar_extension/speed	/jointset/patellofemoral_r/patellar_flexion_r/speed	/jointset/knee_r/knee_flexion_r/speed	/jointset/knee_r/knee_adduction_r/speed	/jointset/knee_r/knee_rotation_r/speed	/jointset/ankle_r/ankle_angle_r/speed	/jointset/subtalar_r/subtalar_angle_r/speed	/forceset/tau_hip_flexion_r	/forceset/tau_hip_adduction_r	/forceset/tau_hip_rotation_r	/forceset/tau_knee_flexion_r	/forceset/tau_ankle_angle_r	/forceset/tau_subtalar_angle_r	/forceset/tau_lumbar_extension	lambda_cid13_p0	lambda_cid14_p0	lambda_cid14_p1	lambda_cid14_p2	lambda_cid14_p3	lambda_cid14_p4	lambda_cid14_p5	/jointset/ground_pelvis/pelvis_tilt/accel	/jointset/ground_pelvis/pelvis_tx/accel	/jointset/ground_pelvis/pelvis_ty/accel	/jointset/hip_r/hip_flexion_r/accel	/jointset/hip_r/hip_adduction_r/accel	/jointset/hip_r/hip_rotation_r/accel	/jointset/back/lumbar_extension/accel	/jointset/patellofemoral_r/patellar_flexion_r/accel	/jointset/knee_r/knee_flexion_r/accel	/jointset/knee_r/knee_adduction_r/accel	/jointset/knee_r/knee_rotation_r/accel	/jointset/ankle_r/ankle_angle_r/accel	/jointset/subtalar_r/subtalar_angle_r/accel	gamma_cid13_p0	gamma_cid14_p0	gamma_cid14_p1	gamma_cid14_p2	gamma_cid14_p3	gamma_cid14_p4	gamma_cid14_p5
1.5	0.004144381807596215	0.1185530908929944	0.9105428587437256	0.3665070435490471	-0.2365733466560493	-0.1646573063371417	-0.2467493798932164	0.4699145410329427	0.4699145410327951	0.09629072840495261	0.1744945642141348	0.2582222952613786	0.04701387934180686	-0.07957002050482813	0.002798143489383552	0.1572956601660573	-0.6430691619467969	0.04284466788512702	-0.2837686190899117	0.6920034632552586	-1.269014757686148	-1.269014757686171	0.1375197945257808	0.0003264531399900026	-0.6133066996366209	-0.1105480421968744	0.01291966226648002	-0.02020755725384781	0.003825451329360044	-0.2829201666993045	0.003959583442852629	-0.02334118805762605	0.06794982929505171	-41.23228580705123	-41.81614808081649	-12.68514580754536	-2.970313861272163	10.8011310957032	-677.7421610093768	53.88975681662015	-0.1495498347481076	-0.03724692286239959	-0.2515421457588767	-0.1716219345868589	0.04508860838508334	-0.2997515831922307	0.6977713511765421	-0.7085890166560666	-0.7085890166560705	0.3187142693929222	-0.009447715685350097	-0.4607161390902532	-0.01049124189089698	9.000295563810468e-08	6.745216519382831e-08	-7.518832720344375e-07	6.695718328364693e-07	4.51457904225561e-08	5.307481628443177e-08	-9.05489711220244e-07
1.51	0.003341217897246351	0.1185791707211789	0.9121028727837543	0.3600687098586228	-0.2361432812908354	-0.167509549190906	-0.2397952758293593	0.4571907603174468	0.4571907603173517	0.09768309714069437	0.1744978068716595	0.2520668134284411	0.04590718483842476	-0.08104827789927764	0.00241246559257004	0.1546748064722188	-0.6445017924261278	0.04316065393851275	-0.2866482534193523	0.6987179438657246	-1.275553078423892	-1.275553078423883	0.1409521391303286	0.0003192926286121358	-0.6177059890524422	-0.110778820291584	0.01606368613569129	-0.02226218769750566	0.003334613653703346	-0.2807500521291664	0.009140920608445702	-0.02464120006778016	0.06463264978683601	-41.52961641712817	-40.14792108341366	-12.87874124577657	-3.029578027391195	10.22699792438225	-676.2243003079722	53.94696285332245	-0.1447831408865003	-0.04002333205625839	-0.2721905001746974	-0.1147071970194837	0.02374617749085378	-0.2771860515504953	0.6433755688376092	-0.598227558726769	-0.5982275587219833	0.3551683368909933	0.003352872990926216	-0.4169681814038877	-0.02760320978769234	9.661820144227247e-08	7.788862418352598e-08	-7.907086931135604e-07	7.286137812287926e-07	4.298820347946435e-08	7.640972266815863e-08	-9.693148654251599e-07
1.52	0.002523707523139131	0.1186012347486037	0.9136357115830493	0.3536189251449393	-0.2357102775503582	-0.1703896117267123	-0.2327770091288232	0.4444072416033107	0.4444072416032296	0.09910972407863886	0.1745009185424744	0.2458698521336326	0.04479853613079059	-0.08243931325749172	0.001994983337449831	0.1518606120192213	-0.6453593666019574	0.04343234293892394	-0.2893325554980125	0.7048359905903737	-1.280962357417367	-1.280962357417327	0.1443714349710843	0.000300255791424126	-0.6216025920113011	-0.1109388830473611	0.01920771000499895	-0.02431681814116128	0.002843775978208864	-0.2785799375590137	0.0143222577740395	-0.02594121207793119	0.06131547027869728	-41.79968544648662	-38.48536365561504	-13.07017928722541	-3.092784863350202	9.648513088852795	-674.8071451525013	54.0576702505304	-0.1321054275006348	-0.04360779452411614	-0.2902102975906761	-0.056610673886433	0.03622919779027738	-0.2606851330359122	0.5784845740133033	-0.4827806678021396	-0.4827806678021421	0.3161045166343076	-0.01182298084764047	-0.3601788476980632	0.003651825895669209	1.033495336606961e-07	8.678478498715981e-08	-8.41627351390637e-07	7.811735101030924e-07	4.24395248360831e-08	1.002720648730852e-07	-1.033918239413271e-06
1.53	0.001692905013384288	0.1186189848953965	0.9151394888871517	0.3471632000699254	-0.2352748650010854	-0.1732955452685719	-0.2257007743451521	0.4315752878042109	0.4315752878042141	0.1005706240522587	0.1745038417557391	0.2396364679535584	0.04368854201491618	-0.08370136544080692	0.001551061833298105	0.1488646049774012	-0.6456879662825247	0.04363927240644642	-0.2918174025092579	0.7103019451874595	-1.285222062564393	-1.28522206256437	0.1478069791608307	0.0002829272904179703	-0.6249796496084671	-0.1110493707473092	0.02247892212871479	-0.02659654947241967	0.0023390761681857	-0.2766580586383723	0.01992367839953154	-0.027342351234373	0.05791064213868773	-42.04220918788449	-36.69142768674136	-13.28632522646613	-3.147720848599485	8.974448287052883	-673.3847599607484	54.16414122669789	-0.1202736649643602	-0.04537311324746003	-0.3088049271312771	-0.006322704805612069	0.01134632777708047	-0.2367254149081676	0.514297759547777	-0.3666372364667332	-0.3666372364689645	0.3569783132935914	0.003230930055706355	-0.3122619643670904	-0.01686098218868861	1.102042076942665e-07	9.404437896810082e-08	-9.053950741905394e-07	8.26845880739492e-07	4.360031126114423e-08	1.246948076380365e-07	-1.099348471921027e-06
1.54	0.0008500782715598851	0.1186321780701722	0.9166124043169059	0.3407071213801843	-0.2348376988558341	-0.1762251954664913	-0.2185731506441101	0.4187069225939731	0.4187069225940349	0.1020658192562921	0.1745065754270664	0.2333721546477881	0.04257775063919247	-0.08484415967286114	0.001083588934002626	0.1456882371495201	-0.645430089549602	0.04378306213573786	-0.2940758867100822	0.7151137740641499	-1.288244639643971	-1.288244639643963	0.1512304810765346	0.0002623473807163091	-0.6277884171512862	-0.1110983350172068	0.02575013425246398	-0.02887628080371396	0.001834376358641509	-0.274736179717763	0.02552509902500473	-0.02874349039087556	0.05450581399871209	-42.25715201499222	-34.90104296630444	-13.4998802587161	-3.206740180698436	8.290407865183729	-672.0320787465126	54.32532596667416	-0.1082538372480018	-0.04831807355324137	-0.3262824548028524	0.06068460881175414	0.02360125014415686	-0.2154125709514776	0.4476594299344525	-0.2353550543122833	-0.2353550543122785	0.3136960618256028	-0.01247326258700603	-0.2465208368290013	0.01595651190582543	1.170827688003695e-07	1.013322708792273e-07	-9.684015302884918e-07	8.721591947248394e-07	4.466361195690989e-08	1.50211615929869e-07	-1.163849885663155e-06
1.55	-3.432725757293808e-06	0.1186405595517663	0.9180527155484898	0.3342563414259298	-0.2343994718412095	-0.1791763539348932	-0.2114009485832215	0.4058144202138275	0.4058144202139413	0.1035952883074863	0.1745091464835258	0.227082522921984	0.04146668849902869	-0.08583711719973014	0.000586135999181766	0.1423470726362368	-0.6446216333610501	0.04385070328882903	-0.2961189846927205	0.7192049088341405	-1.290040539977262	-1.290040539977261	0.1546571529789145	0.0002527983616920407	-0.630041805388349	-0.1111042363803344	0.0291286248217098	-0.03127860579371123	0.001316467508759612	-0.2730022739100988	0.03130298257409948	-0.03026874989427809	0.0510224200895549	-42.44468247317843	-33.06676923110908	-13.76523173110995	-3.251132432810996	7.618580274397753	-670.7723597433082	54.4319146852309	-0.09167050790806412	-0.05143538375961414	-0.3420355561805739	0.1065766295580585	-0.003344570655446582	-0.1930708239066932	0.3715811090981434	-0.1194386263407868	-0.1194386263415387	0.3561533085864325	0.005099146222823734	-0.2003089096517049	-0.00744143371437225	1.239888519683033e-07	1.086527669273067e-07	-1.030530874751589e-06	9.170588130035398e-07	4.56145921384873e-08	1.769889779809339e-07	-1.227281138653581e-06
